<mxfile host="app.diagrams.net" modified="2021-10-23T01:39:33.710Z" agent="5.0 (Windows NT 10.0; Win64; x64) AppleWebKit/537.36 (KHTML, like Gecko) Chrome/94.0.4606.81 Safari/537.36" etag="kGhCeO3T7y4noJNn3LY8" version="15.5.8" type="github">
  <diagram id="C5RBs43oDa-KdzZeNtuy" name="Page-1">
    <mxGraphModel dx="1422" dy="729" grid="1" gridSize="10" guides="1" tooltips="1" connect="1" arrows="1" fold="1" page="1" pageScale="1" pageWidth="827" pageHeight="1169" math="0" shadow="0">
      <root>
        <mxCell id="WIyWlLk6GJQsqaUBKTNV-0" />
        <mxCell id="WIyWlLk6GJQsqaUBKTNV-1" parent="WIyWlLk6GJQsqaUBKTNV-0" />
        <mxCell id="7Qa2y35u4C4ubTH2v5ol-0" value="" style="rounded=0;html=1;jettySize=auto;orthogonalLoop=1;fontSize=11;endArrow=block;endFill=0;endSize=8;strokeWidth=1;shadow=0;labelBackgroundColor=none;edgeStyle=orthogonalEdgeStyle;" edge="1" parent="WIyWlLk6GJQsqaUBKTNV-1" source="7Qa2y35u4C4ubTH2v5ol-1" target="7Qa2y35u4C4ubTH2v5ol-3">
          <mxGeometry relative="1" as="geometry" />
        </mxCell>
        <mxCell id="7Qa2y35u4C4ubTH2v5ol-28" style="edgeStyle=orthogonalEdgeStyle;rounded=0;orthogonalLoop=1;jettySize=auto;html=1;exitX=1;exitY=0.25;exitDx=0;exitDy=0;entryX=0;entryY=0.5;entryDx=0;entryDy=0;" edge="1" parent="WIyWlLk6GJQsqaUBKTNV-1" source="7Qa2y35u4C4ubTH2v5ol-1" target="7Qa2y35u4C4ubTH2v5ol-27">
          <mxGeometry relative="1" as="geometry" />
        </mxCell>
        <mxCell id="7Qa2y35u4C4ubTH2v5ol-1" value="ScreenOff" style="rounded=1;whiteSpace=wrap;html=1;fontSize=12;glass=0;strokeWidth=1;shadow=0;" vertex="1" parent="WIyWlLk6GJQsqaUBKTNV-1">
          <mxGeometry x="160" y="80" width="120" height="40" as="geometry" />
        </mxCell>
        <mxCell id="7Qa2y35u4C4ubTH2v5ol-2" value="True" style="rounded=0;html=1;jettySize=auto;orthogonalLoop=1;fontSize=11;endArrow=block;endFill=0;endSize=8;strokeWidth=1;shadow=0;labelBackgroundColor=none;edgeStyle=orthogonalEdgeStyle;" edge="1" parent="WIyWlLk6GJQsqaUBKTNV-1" source="7Qa2y35u4C4ubTH2v5ol-3">
          <mxGeometry y="30" relative="1" as="geometry">
            <mxPoint as="offset" />
            <mxPoint x="220" y="290" as="targetPoint" />
          </mxGeometry>
        </mxCell>
        <mxCell id="7Qa2y35u4C4ubTH2v5ol-3" value="plugPower" style="rhombus;whiteSpace=wrap;html=1;shadow=0;fontFamily=Helvetica;fontSize=12;align=center;strokeWidth=1;spacing=6;spacingTop=-4;" vertex="1" parent="WIyWlLk6GJQsqaUBKTNV-1">
          <mxGeometry x="170" y="170" width="100" height="80" as="geometry" />
        </mxCell>
        <mxCell id="7Qa2y35u4C4ubTH2v5ol-5" style="edgeStyle=orthogonalEdgeStyle;rounded=0;orthogonalLoop=1;jettySize=auto;html=1;entryX=0;entryY=0.5;entryDx=0;entryDy=0;" edge="1" parent="WIyWlLk6GJQsqaUBKTNV-1" source="7Qa2y35u4C4ubTH2v5ol-6" target="7Qa2y35u4C4ubTH2v5ol-18">
          <mxGeometry relative="1" as="geometry" />
        </mxCell>
        <mxCell id="7Qa2y35u4C4ubTH2v5ol-6" value="ScreenCharging" style="rounded=1;whiteSpace=wrap;html=1;fontSize=12;glass=0;strokeWidth=1;shadow=0;" vertex="1" parent="WIyWlLk6GJQsqaUBKTNV-1">
          <mxGeometry x="160" y="290" width="120" height="40" as="geometry" />
        </mxCell>
        <mxCell id="7Qa2y35u4C4ubTH2v5ol-16" style="edgeStyle=orthogonalEdgeStyle;rounded=0;orthogonalLoop=1;jettySize=auto;html=1;entryX=1;entryY=0.5;entryDx=0;entryDy=0;" edge="1" parent="WIyWlLk6GJQsqaUBKTNV-1" source="7Qa2y35u4C4ubTH2v5ol-18" target="7Qa2y35u4C4ubTH2v5ol-1">
          <mxGeometry relative="1" as="geometry">
            <Array as="points">
              <mxPoint x="364" y="100" />
            </Array>
          </mxGeometry>
        </mxCell>
        <mxCell id="7Qa2y35u4C4ubTH2v5ol-17" value="True" style="edgeLabel;html=1;align=center;verticalAlign=middle;resizable=0;points=[];" vertex="1" connectable="0" parent="7Qa2y35u4C4ubTH2v5ol-16">
          <mxGeometry x="-0.2504" relative="1" as="geometry">
            <mxPoint as="offset" />
          </mxGeometry>
        </mxCell>
        <mxCell id="7Qa2y35u4C4ubTH2v5ol-18" value="unplugPower" style="rhombus;whiteSpace=wrap;html=1;shadow=0;fontFamily=Helvetica;fontSize=12;align=center;strokeWidth=1;spacing=6;spacingTop=-4;" vertex="1" parent="WIyWlLk6GJQsqaUBKTNV-1">
          <mxGeometry x="314" y="270" width="100" height="80" as="geometry" />
        </mxCell>
        <mxCell id="7Qa2y35u4C4ubTH2v5ol-29" style="edgeStyle=orthogonalEdgeStyle;rounded=0;orthogonalLoop=1;jettySize=auto;html=1;exitX=0.5;exitY=0;exitDx=0;exitDy=0;entryX=1;entryY=0.5;entryDx=0;entryDy=0;" edge="1" parent="WIyWlLk6GJQsqaUBKTNV-1" source="7Qa2y35u4C4ubTH2v5ol-27" target="7Qa2y35u4C4ubTH2v5ol-30">
          <mxGeometry relative="1" as="geometry">
            <mxPoint x="360" y="30" as="targetPoint" />
            <Array as="points">
              <mxPoint x="500" y="40" />
            </Array>
          </mxGeometry>
        </mxCell>
        <mxCell id="7Qa2y35u4C4ubTH2v5ol-32" value="True" style="edgeLabel;html=1;align=center;verticalAlign=middle;resizable=0;points=[];" vertex="1" connectable="0" parent="7Qa2y35u4C4ubTH2v5ol-29">
          <mxGeometry x="-0.15" y="-2" relative="1" as="geometry">
            <mxPoint as="offset" />
          </mxGeometry>
        </mxCell>
        <mxCell id="7Qa2y35u4C4ubTH2v5ol-34" style="edgeStyle=orthogonalEdgeStyle;rounded=0;orthogonalLoop=1;jettySize=auto;html=1;" edge="1" parent="WIyWlLk6GJQsqaUBKTNV-1" source="7Qa2y35u4C4ubTH2v5ol-27">
          <mxGeometry relative="1" as="geometry">
            <mxPoint x="500" y="220" as="targetPoint" />
          </mxGeometry>
        </mxCell>
        <mxCell id="7Qa2y35u4C4ubTH2v5ol-35" value="False" style="edgeLabel;html=1;align=center;verticalAlign=middle;resizable=0;points=[];" vertex="1" connectable="0" parent="7Qa2y35u4C4ubTH2v5ol-34">
          <mxGeometry x="-0.2222" y="1" relative="1" as="geometry">
            <mxPoint as="offset" />
          </mxGeometry>
        </mxCell>
        <mxCell id="7Qa2y35u4C4ubTH2v5ol-27" value="powerLow" style="rhombus;whiteSpace=wrap;html=1;shadow=0;fontFamily=Helvetica;fontSize=12;align=center;strokeWidth=1;spacing=6;spacingTop=-4;" vertex="1" parent="WIyWlLk6GJQsqaUBKTNV-1">
          <mxGeometry x="450" y="50" width="100" height="80" as="geometry" />
        </mxCell>
        <mxCell id="7Qa2y35u4C4ubTH2v5ol-31" style="edgeStyle=orthogonalEdgeStyle;rounded=0;orthogonalLoop=1;jettySize=auto;html=1;exitX=0;exitY=0.5;exitDx=0;exitDy=0;entryX=1;entryY=0.5;entryDx=0;entryDy=0;" edge="1" parent="WIyWlLk6GJQsqaUBKTNV-1" source="7Qa2y35u4C4ubTH2v5ol-30" target="7Qa2y35u4C4ubTH2v5ol-39">
          <mxGeometry relative="1" as="geometry" />
        </mxCell>
        <mxCell id="7Qa2y35u4C4ubTH2v5ol-33" value="True" style="edgeLabel;html=1;align=center;verticalAlign=middle;resizable=0;points=[];" vertex="1" connectable="0" parent="7Qa2y35u4C4ubTH2v5ol-31">
          <mxGeometry x="-0.4133" relative="1" as="geometry">
            <mxPoint as="offset" />
          </mxGeometry>
        </mxCell>
        <mxCell id="7Qa2y35u4C4ubTH2v5ol-30" value="pressButton" style="rhombus;whiteSpace=wrap;html=1;shadow=0;fontFamily=Helvetica;fontSize=12;align=center;strokeWidth=1;spacing=6;spacingTop=-4;" vertex="1" parent="WIyWlLk6GJQsqaUBKTNV-1">
          <mxGeometry x="330" width="100" height="80" as="geometry" />
        </mxCell>
        <mxCell id="7Qa2y35u4C4ubTH2v5ol-38" style="edgeStyle=orthogonalEdgeStyle;rounded=0;orthogonalLoop=1;jettySize=auto;html=1;" edge="1" parent="WIyWlLk6GJQsqaUBKTNV-1" source="7Qa2y35u4C4ubTH2v5ol-36" target="7Qa2y35u4C4ubTH2v5ol-37">
          <mxGeometry relative="1" as="geometry" />
        </mxCell>
        <mxCell id="7Qa2y35u4C4ubTH2v5ol-36" value="PressButton" style="rhombus;whiteSpace=wrap;html=1;shadow=0;fontFamily=Helvetica;fontSize=12;align=center;strokeWidth=1;spacing=6;spacingTop=-4;" vertex="1" parent="WIyWlLk6GJQsqaUBKTNV-1">
          <mxGeometry x="450" y="220" width="100" height="80" as="geometry" />
        </mxCell>
        <mxCell id="7Qa2y35u4C4ubTH2v5ol-42" style="edgeStyle=orthogonalEdgeStyle;rounded=0;orthogonalLoop=1;jettySize=auto;html=1;entryX=0.5;entryY=0;entryDx=0;entryDy=0;" edge="1" parent="WIyWlLk6GJQsqaUBKTNV-1" source="7Qa2y35u4C4ubTH2v5ol-37" target="7Qa2y35u4C4ubTH2v5ol-41">
          <mxGeometry relative="1" as="geometry" />
        </mxCell>
        <mxCell id="7Qa2y35u4C4ubTH2v5ol-46" style="edgeStyle=orthogonalEdgeStyle;rounded=0;orthogonalLoop=1;jettySize=auto;html=1;exitX=0;exitY=0.5;exitDx=0;exitDy=0;entryX=1;entryY=0.5;entryDx=0;entryDy=0;" edge="1" parent="WIyWlLk6GJQsqaUBKTNV-1" source="7Qa2y35u4C4ubTH2v5ol-37" target="7Qa2y35u4C4ubTH2v5ol-45">
          <mxGeometry relative="1" as="geometry" />
        </mxCell>
        <mxCell id="7Qa2y35u4C4ubTH2v5ol-37" value="ScreenOn" style="rounded=1;whiteSpace=wrap;html=1;fontSize=12;glass=0;strokeWidth=1;shadow=0;" vertex="1" parent="WIyWlLk6GJQsqaUBKTNV-1">
          <mxGeometry x="440" y="340" width="120" height="40" as="geometry" />
        </mxCell>
        <mxCell id="7Qa2y35u4C4ubTH2v5ol-40" style="edgeStyle=orthogonalEdgeStyle;rounded=0;orthogonalLoop=1;jettySize=auto;html=1;exitX=0.5;exitY=1;exitDx=0;exitDy=0;entryX=0.5;entryY=0;entryDx=0;entryDy=0;" edge="1" parent="WIyWlLk6GJQsqaUBKTNV-1" source="7Qa2y35u4C4ubTH2v5ol-39" target="7Qa2y35u4C4ubTH2v5ol-1">
          <mxGeometry relative="1" as="geometry" />
        </mxCell>
        <mxCell id="7Qa2y35u4C4ubTH2v5ol-39" value="DisplayLowPowerMessage" style="rounded=1;whiteSpace=wrap;html=1;fontSize=12;glass=0;strokeWidth=1;shadow=0;" vertex="1" parent="WIyWlLk6GJQsqaUBKTNV-1">
          <mxGeometry x="100" y="20" width="180" height="40" as="geometry" />
        </mxCell>
        <mxCell id="7Qa2y35u4C4ubTH2v5ol-43" style="edgeStyle=orthogonalEdgeStyle;rounded=0;orthogonalLoop=1;jettySize=auto;html=1;exitX=0;exitY=0.5;exitDx=0;exitDy=0;entryX=0;entryY=0.5;entryDx=0;entryDy=0;" edge="1" parent="WIyWlLk6GJQsqaUBKTNV-1" source="7Qa2y35u4C4ubTH2v5ol-41" target="7Qa2y35u4C4ubTH2v5ol-1">
          <mxGeometry relative="1" as="geometry" />
        </mxCell>
        <mxCell id="7Qa2y35u4C4ubTH2v5ol-49" value="True" style="edgeLabel;html=1;align=center;verticalAlign=middle;resizable=0;points=[];" vertex="1" connectable="0" parent="7Qa2y35u4C4ubTH2v5ol-43">
          <mxGeometry x="-0.725" y="1" relative="1" as="geometry">
            <mxPoint as="offset" />
          </mxGeometry>
        </mxCell>
        <mxCell id="7Qa2y35u4C4ubTH2v5ol-41" value="PressButton" style="rhombus;whiteSpace=wrap;html=1;shadow=0;fontFamily=Helvetica;fontSize=12;align=center;strokeWidth=1;spacing=6;spacingTop=-4;" vertex="1" parent="WIyWlLk6GJQsqaUBKTNV-1">
          <mxGeometry x="380" y="440" width="100" height="80" as="geometry" />
        </mxCell>
        <mxCell id="7Qa2y35u4C4ubTH2v5ol-47" style="edgeStyle=orthogonalEdgeStyle;rounded=0;orthogonalLoop=1;jettySize=auto;html=1;exitX=0;exitY=0.5;exitDx=0;exitDy=0;entryX=0.5;entryY=1;entryDx=0;entryDy=0;" edge="1" parent="WIyWlLk6GJQsqaUBKTNV-1" source="7Qa2y35u4C4ubTH2v5ol-45" target="7Qa2y35u4C4ubTH2v5ol-6">
          <mxGeometry relative="1" as="geometry" />
        </mxCell>
        <mxCell id="7Qa2y35u4C4ubTH2v5ol-48" value="True" style="edgeLabel;html=1;align=center;verticalAlign=middle;resizable=0;points=[];" vertex="1" connectable="0" parent="7Qa2y35u4C4ubTH2v5ol-47">
          <mxGeometry x="0.075" relative="1" as="geometry">
            <mxPoint as="offset" />
          </mxGeometry>
        </mxCell>
        <mxCell id="7Qa2y35u4C4ubTH2v5ol-45" value="unplugPower" style="rhombus;whiteSpace=wrap;html=1;shadow=0;fontFamily=Helvetica;fontSize=12;align=center;strokeWidth=1;spacing=6;spacingTop=-4;" vertex="1" parent="WIyWlLk6GJQsqaUBKTNV-1">
          <mxGeometry x="250" y="340" width="100" height="80" as="geometry" />
        </mxCell>
      </root>
    </mxGraphModel>
  </diagram>
</mxfile>
